<svg xmlns="http://www.w3.org/2000/svg" width="560" height="560" viewBox="0 0 560 560" fill="none" stroke="#000" stroke-width="1.45" stroke-linecap="round" stroke-linejoin="round"><defs><g id="cat"><path d="M5 9.5 4.6 4 9.2 6.9M19 9.5 19.4 4 14.8 6.9"/><path d="M5 9.5C5 15 8 19 12 19s7-4 7-9.5c0-1.8-1.7-3.1-3.6-2.6C13.6 6.3 10.4 6.3 8.6 6.9 6.7 6.4 5 7.7 5 9.5Z"/><path d="M9.5 11.6h.01M14.5 11.6h.01M11.2 14l.8.7.8-.7M2.5 12.8l5 .7M2.8 15.6l4.7-.8M21.5 12.8l-5 .7M21.2 15.6l-4.7-.8"/></g><g id="paw"><path d="M8.4 16c0-2.6 1.6-3.9 3.6-3.9s3.6 1.3 3.6 3.9c0 2-1.7 2.5-3.6 1.8-1.9.7-3.6.2-3.6-1.8Z"/><circle cx="6.8" cy="10.6" r="1.6"/><circle cx="10" cy="7.4" r="1.6"/><circle cx="14" cy="7.4" r="1.6"/><circle cx="17.2" cy="10.6" r="1.6"/></g><g id="fish"><path d="M3.5 12c3-5 10.5-5 13.5 0-3 5-10.5 5-13.5 0Z"/><path d="M17 12l4-3.5v7Z"/><path d="M7.6 11h.01M11 9.5c.8 1.6.8 3.4 0 5"/></g><g id="yarn"><circle cx="11.5" cy="12" r="7"/><path d="M5.5 9c3 2 8 1.5 11.5-2M5 13c4.5 2 9.5 1.2 13-2.5M8 18.3c2.8-3 4.5-7.5 3.6-13.2"/><path d="M17 17c1.5 1.5 3 1 4.5 3"/></g><g id="bubble"><path d="M5 5.5h14a2 2 0 0 1 2 2v7.5a2 2 0 0 1-2 2h-8.5L6.5 20v-3H5a2 2 0 0 1-2-2V7.5a2 2 0 0 1 2-2Z"/><path d="M8 11.2h.01M12 11.2h.01M16 11.2h.01"/></g><g id="talk"><path d="M12 4c-4.9 0-8.5 3.2-8.5 7.2 0 2.1 1 3.9 2.6 5.2L5.2 20l4.1-2c.9.3 1.8.4 2.7.4 4.9 0 8.5-3.2 8.5-7.2S16.9 4 12 4Z"/><path d="M8.5 10h7M8.5 13H13"/></g><g id="heart"><path d="M12 19.2s-8-4.6-8-9.8C4 7 5.9 5 8.2 5c1.6 0 3 .9 3.8 2.2C12.8 5.9 14.2 5 15.8 5 18.1 5 20 7 20 9.4c0 5.2-8 9.8-8 9.8Z"/></g><g id="star"><path d="m12 3.5 2.5 5.4 5.9.6-4.4 4 1.3 5.8L12 16.4l-5.3 2.9L8 13.5l-4.4-4 5.9-.6Z"/></g><g id="sparkle"><path d="M12 3c.6 5 4 8.4 9 9-5 .6-8.4 4-9 9-.6-5-4-8.4-9-9 5-.6 8.4-4 9-9Z"/></g><g id="plane"><path d="M21.5 2.5 2.5 10.2l7.5 3.3 3.6 8Z"/><path d="M10 13.5 21.5 2.5"/></g><g id="mail"><rect x="3.5" y="6" width="17" height="12.5" rx="2"/><path d="m4.2 7 7.8 6 7.8-6"/></g><g id="lock"><rect x="5" y="10.5" width="14" height="10" rx="2.5"/><path d="M8 10.5v-3a4 4 0 0 1 8 0v3M12 14.5v2"/></g><g id="key"><circle cx="7.5" cy="12" r="4"/><path d="M11.5 12h10M18.5 12v3M21.5 12v2.5"/></g><g id="note"><path d="M9 17.8V6l10-2v11.8"/><circle cx="7" cy="17.8" r="2"/><circle cx="17" cy="15.8" r="2"/></g><g id="moon"><path d="M19.5 14.6A8.5 8.5 0 0 1 9.4 4.5a8.5 8.5 0 1 0 10.1 10.1Z"/></g><g id="cloud"><path d="M7 18h10.5a3.5 3.5 0 0 0 .3-7A5.8 5.8 0 0 0 6.4 10.1 4 4 0 0 0 7 18Z"/></g><g id="cup"><path d="M5 9h11v5c0 3-2.2 5-5 5h-1c-2.8 0-5-2-5-5Z"/><path d="M16 10.5h1.5a2.3 2.3 0 0 1 0 4.5H16M8.5 3.5c-1 1.3 1 2.1 0 3.5M12 3.5c-1 1.3 1 2.1 0 3.5"/></g><g id="flower"><path d="M12 13.5V21M12 17.2c-1.8-1.6-3.8-1.3-5-.2M12 18.6c1.8-1.5 3.8-1.2 5 .2"/><circle cx="12" cy="9" r="1.8"/><circle cx="12" cy="5.4" r="2"/><circle cx="15.4" cy="7.9" r="2"/><circle cx="14.1" cy="11.9" r="2"/><circle cx="9.9" cy="11.9" r="2"/><circle cx="8.6" cy="7.9" r="2"/></g><g id="leaf"><path d="M5 19C5 11 10 5 19 5c0 9-6 14-14 14Z"/><path d="M5 19l8-8"/></g><g id="bell"><path d="M6 16v-5a6 6 0 0 1 12 0v5l1.5 2h-15Z"/><path d="M10 20.5a2.3 2.3 0 0 0 4 0M12 3v2"/></g><g id="game"><path d="M7 8h10c2.8 0 4.5 2.5 4.5 5.5 0 2.5-1.5 4-3 4s-2.5-2-3.5-2H9c-1 0-2 2-3.5 2s-3-1.5-3-4C2.5 10.5 4.2 8 7 8Z"/><path d="M7 11v3M5.5 12.5h3M15.8 12h.01M17.8 13.5h.01"/></g><g id="camera"><rect x="3" y="7" width="18" height="13" rx="2.5"/><path d="M8.5 7 10 4.5h4L15.5 7"/><circle cx="12" cy="13.5" r="3.5"/></g><g id="phones"><path d="M4 15v-3a8 8 0 0 1 16 0v3"/><path d="M4 14h3v6H5.5A1.5 1.5 0 0 1 4 18.5ZM20 14h-3v6h1.5a1.5 1.5 0 0 0 1.5-1.5Z"/></g><g id="smile"><circle cx="12" cy="12" r="8.5"/><path d="M9 10h.01M15 10h.01M8.5 14c1 1.6 2.1 2.3 3.5 2.3s2.5-.7 3.5-2.3"/></g><g id="balloon"><path d="M12 3.5c-3.3 0-5.5 2.7-5.5 6 0 3.5 2.7 6.3 5.5 7 2.8-.7 5.5-3.5 5.5-7 0-3.3-2.2-6-5.5-6Z"/><path d="m11 17.5 1-1 1 1Z"/><path d="M12 17.5c-1 1.5 1 2.5 0 4"/></g><g id="sun"><circle cx="12" cy="12" r="3.6"/><path d="M12 3.5v2M12 18.5v2M3.5 12h2M18.5 12h2M6 6l1.4 1.4M16.6 16.6 18 18M6 18l1.4-1.4M16.6 7.4 18 6"/></g><g id="dot"><circle cx="12" cy="12" r="1.7"/></g><g id="plus"><path d="M12 8.5v7M8.5 12h7"/></g><g id="wave"><path d="M4 12c2-3 4 3 6 0s4 3 6 0 3 2 4 0"/></g><g id="ring"><circle cx="12" cy="12" r="3"/></g></defs><use href="#star" transform="translate(234.5 294.6) scale(1.573) rotate(-3 12 12)"/><use href="#plane" transform="translate(460.4 88.0) scale(1.531) rotate(7 12 12)"/><use href="#paw" transform="translate(427.8 36.4) scale(1.356) rotate(2 12 12)"/><use href="#fish" transform="translate(481.1 337.8) scale(1.458) rotate(24 12 12)"/><use href="#cat" transform="translate(350.5 329.1) scale(1.305) rotate(17 12 12)"/><use href="#moon" transform="translate(16.7 1.3) scale(1.558) rotate(-24 12 12)"/><use href="#mail" transform="translate(241.3 228.2) scale(1.545) rotate(-14 12 12)"/><use href="#cup" transform="translate(149.4 -12.8) scale(1.280) rotate(-12 12 12)"/><use href="#cup" transform="translate(149.4 547.2) scale(1.280) rotate(-12 12 12)"/><use href="#heart" transform="translate(380.4 160.6) scale(1.330) rotate(-24 12 12)"/><use href="#heart" transform="translate(299.9 45.0) scale(1.288) rotate(-6 12 12)"/><use href="#talk" transform="translate(521.5 459.5) scale(1.250) rotate(22 12 12)"/><use href="#yarn" transform="translate(11.3 192.3) scale(1.498) rotate(-22 12 12)"/><use href="#paw" transform="translate(336.4 419.8) scale(1.344) rotate(-10 12 12)"/><use href="#star" transform="translate(60.3 380.9) scale(1.254) rotate(15 12 12)"/><use href="#bubble" transform="translate(82.6 296.3) scale(1.407) rotate(25 12 12)"/><use href="#fish" transform="translate(414.3 218.2) scale(1.384) rotate(-4 12 12)"/><use href="#camera" transform="translate(100.1 132.0) scale(1.590) rotate(5 12 12)"/><use href="#cat" transform="translate(-19.8 319.7) scale(1.452) rotate(25 12 12)"/><use href="#cat" transform="translate(540.2 319.7) scale(1.452) rotate(25 12 12)"/><use href="#paw" transform="translate(168.9 150.6) scale(1.276) rotate(-15 12 12)"/><use href="#cloud" transform="translate(339.9 -7.9) scale(1.379) rotate(-2 12 12)"/><use href="#cloud" transform="translate(339.9 552.1) scale(1.379) rotate(-2 12 12)"/><use href="#balloon" transform="translate(519.7 253.5) scale(1.451) rotate(-6 12 12)"/><use href="#yarn" transform="translate(126.3 397.7) scale(1.387) rotate(17 12 12)"/><use href="#leaf" transform="translate(318.3 148.6) scale(1.311) rotate(25 12 12)"/><use href="#cloud" transform="translate(53.0 250.7) scale(1.479) rotate(6 12 12)"/><use href="#cat" transform="translate(141.1 497.9) scale(1.321) rotate(-22 12 12)"/><use href="#heart" transform="translate(215.2 124.3) scale(1.266) rotate(-7 12 12)"/><use href="#flower" transform="translate(481.2 -28.7) scale(1.480) rotate(1 12 12)"/><use href="#flower" transform="translate(481.2 531.3) scale(1.480) rotate(1 12 12)"/><use href="#paw" transform="translate(6.8 506.2) scale(1.508) rotate(15 12 12)"/><use href="#wave" transform="translate(494.5 179.1) scale(1.490) rotate(-22 12 12)"/><use href="#fish" transform="translate(262.2 -9.6) scale(1.482) rotate(4 12 12)"/><use href="#fish" transform="translate(262.2 550.4) scale(1.482) rotate(4 12 12)"/><use href="#star" transform="translate(200.1 394.2) scale(1.453) rotate(-2 12 12)"/><use href="#phones" transform="translate(285.9 273.3) scale(1.430) rotate(5 12 12)"/><use href="#wave" transform="translate(364.0 97.7) scale(1.309) rotate(-8 12 12)"/><use href="#talk" transform="translate(434.2 406.8) scale(1.320) rotate(-6 12 12)"/><use href="#leaf" transform="translate(259.5 450.2) scale(1.547) rotate(-23 12 12)"/><use href="#phones" transform="translate(383.5 453.8) scale(1.469) rotate(-22 12 12)"/><use href="#cloud" transform="translate(117.8 63.7) scale(1.266) rotate(-20 12 12)"/><use href="#smile" transform="translate(190.6 27.8) scale(1.319) rotate(-1 12 12)"/><use href="#leaf" transform="translate(83.1 -11.0) scale(1.415) rotate(-24 12 12)"/><use href="#leaf" transform="translate(83.1 549.0) scale(1.415) rotate(-24 12 12)"/><use href="#talk" transform="translate(71.2 457.4) scale(1.495) rotate(-21 12 12)"/><use href="#star" transform="translate(506.7 389.0) scale(1.295) rotate(-16 12 12)"/><use href="#phones" transform="translate(347.1 263.0) scale(1.537) rotate(-2 12 12)"/><use href="#flower" transform="translate(270.7 386.7) scale(1.544) rotate(-3 12 12)"/><use href="#mail" transform="translate(449.8 298.8) scale(1.308) rotate(18 12 12)"/><use href="#balloon" transform="translate(457.5 488.4) scale(1.323) rotate(-19 12 12)"/><use href="#wave" transform="translate(257.3 171.4) scale(1.565) rotate(22 12 12)"/><use href="#cat" transform="translate(-1.5 127.8) scale(1.496) rotate(-24 12 12)"/><use href="#cat" transform="translate(558.5 127.8) scale(1.496) rotate(-24 12 12)"/><use href="#wave" transform="translate(177.1 83.9) scale(1.461) rotate(22 12 12)"/><use href="#bell" transform="translate(525.2 47.5) scale(1.427) rotate(-8 12 12)"/><use href="#bubble" transform="translate(326.5 489.8) scale(1.418) rotate(-16 12 12)"/><use href="#yarn" transform="translate(165.9 244.3) scale(1.430) rotate(-15 12 12)"/><use href="#bubble" transform="translate(193.8 339.9) scale(1.264) rotate(-17 12 12)"/><use href="#cloud" transform="translate(411.5 -26.2) scale(1.258) rotate(-20 12 12)"/><use href="#cloud" transform="translate(411.5 533.8) scale(1.258) rotate(-20 12 12)"/><use href="#bell" transform="translate(115.6 231.3) scale(1.427) rotate(-16 12 12)"/><use href="#plane" transform="translate(291.8 336.9) scale(1.381) rotate(-8 12 12)"/><use href="#paw" transform="translate(106.1 351.7) scale(1.364) rotate(-9 12 12)"/><use href="#lock" transform="translate(6.8 404.8) scale(1.595) rotate(18 12 12)"/><use href="#talk" transform="translate(44.9 87.4) scale(1.326) rotate(5 12 12)"/><use href="#game" transform="translate(207.7 517.4) scale(1.481) rotate(24 12 12)"/><use href="#bubble" transform="translate(170.3 447.7) scale(1.282) rotate(6 12 12)"/><use href="#paw" transform="translate(379.1 41.1) scale(1.261) rotate(-3 12 12)"/><use href="#sun" transform="translate(300.1 211.7) scale(1.349) rotate(26 12 12)"/><use href="#plus" transform="translate(122.2 28.4) scale(0.823) rotate(19 12 12)"/><use href="#ring" transform="translate(228.6 443.5) scale(0.617) rotate(3 12 12)"/><use href="#sparkle" transform="translate(496.5 45.7) scale(0.788) rotate(20 12 12)"/><use href="#sparkle" transform="translate(427.5 484.8) scale(0.611) rotate(-16 12 12)"/><use href="#dot" transform="translate(460.9 190.0) scale(0.692) rotate(7 12 12)"/><use href="#dot" transform="translate(382.3 305.0) scale(0.710) rotate(-16 12 12)"/><use href="#plus" transform="translate(485.9 21.0) scale(0.582) rotate(24 12 12)"/><use href="#sparkle" transform="translate(222.8 85.2) scale(0.808) rotate(11 12 12)"/><use href="#sparkle" transform="translate(415.6 130.1) scale(0.634) rotate(-16 12 12)"/><use href="#dot" transform="translate(284.3 525.6) scale(0.602) rotate(-20 12 12)"/><use href="#plus" transform="translate(235.3 365.8) scale(0.714) rotate(15 12 12)"/><use href="#sparkle" transform="translate(285.5 139.5) scale(0.727) rotate(8 12 12)"/><use href="#dot" transform="translate(381.2 384.1) scale(0.837) rotate(-1 12 12)"/><use href="#dot" transform="translate(248.2 410.4) scale(0.562) rotate(-5 12 12)"/><use href="#dot" transform="translate(254.2 513.8) scale(0.841) rotate(-11 12 12)"/><use href="#dot" transform="translate(522.6 509.6) scale(0.615) rotate(-5 12 12)"/><use href="#dot" transform="translate(488.4 251.0) scale(0.668) rotate(-6 12 12)"/><use href="#sparkle" transform="translate(14.1 75.7) scale(0.729) rotate(-15 12 12)"/><use href="#dot" transform="translate(409.3 363.0) scale(0.570) rotate(3 12 12)"/><use href="#plus" transform="translate(499.9 442.0) scale(0.693) rotate(10 12 12)"/><use href="#ring" transform="translate(212.3 197.2) scale(0.569) rotate(-12 12 12)"/><use href="#plus" transform="translate(351.9 207.4) scale(0.652) rotate(-24 12 12)"/><use href="#sparkle" transform="translate(17.9 295.2) scale(0.734) rotate(-12 12 12)"/><use href="#dot" transform="translate(186.4 488.6) scale(0.644) rotate(10 12 12)"/><use href="#dot" transform="translate(374.9 530.2) scale(0.797) rotate(-9 12 12)"/><use href="#ring" transform="translate(183.7 213.3) scale(0.772) rotate(-13 12 12)"/><use href="#plus" transform="translate(349.8 61.1) scale(0.772) rotate(16 12 12)"/><use href="#dot" transform="translate(61.1 202.1) scale(0.751) rotate(8 12 12)"/><use href="#sparkle" transform="translate(100.0 191.1) scale(0.712) rotate(-5 12 12)"/><use href="#plus" transform="translate(486.6 142.7) scale(0.721) rotate(7 12 12)"/><use href="#plus" transform="translate(145.1 119.1) scale(0.695) rotate(3 12 12)"/><use href="#plus" transform="translate(-11.4 222.1) scale(0.560) rotate(16 12 12)"/><use href="#plus" transform="translate(548.6 222.1) scale(0.560) rotate(16 12 12)"/><use href="#plus" transform="translate(58.6 33.9) scale(0.658) rotate(-23 12 12)"/><use href="#sparkle" transform="translate(163.5 288.6) scale(0.750) rotate(23 12 12)"/><use href="#plus" transform="translate(69.6 172.0) scale(0.767) rotate(16 12 12)"/><use href="#ring" transform="translate(218.1 478.7) scale(0.588) rotate(-20 12 12)"/><use href="#dot" transform="translate(95.2 508.0) scale(0.787) rotate(17 12 12)"/><use href="#plus" transform="translate(27.1 478.1) scale(0.763) rotate(1 12 12)"/><use href="#ring" transform="translate(9.2 373.6) scale(0.690) rotate(-22 12 12)"/><use href="#dot" transform="translate(-15.7 106.9) scale(0.739) rotate(3 12 12)"/><use href="#dot" transform="translate(544.3 106.9) scale(0.739) rotate(3 12 12)"/><use href="#sparkle" transform="translate(420.5 87.4) scale(0.724) rotate(-19 12 12)"/><use href="#plus" transform="translate(56.2 518.2) scale(0.733) rotate(-10 12 12)"/><use href="#ring" transform="translate(68.0 62.3) scale(0.579) rotate(-14 12 12)"/><use href="#sparkle" transform="translate(408.0 328.5) scale(0.685) rotate(-7 12 12)"/><use href="#plus" transform="translate(177.7 318.2) scale(0.748) rotate(-11 12 12)"/><use href="#ring" transform="translate(402.3 427.5) scale(0.586) rotate(-18 12 12)"/></svg>