<svg xmlns="http://www.w3.org/2000/svg" width="720" height="720" viewBox="0 0 720 720" fill="none" stroke="#000" stroke-width="1.6" stroke-linecap="round" stroke-linejoin="round"><defs><g id="a"><circle cx="12" cy="12" r="3.4"/><path d="M15.4 8.8v4.4c0 1.6 1 2.6 2.3 2.6 1.7 0 2.8-1.7 2.8-3.9A8.5 8.5 0 1 0 16 19.6"/></g><g id="b"><path d="M4.5 11v2M8 8.5v7M11.5 5.5v13M15 8v8M18.5 10v4"/></g><g id="c"><path d="M5 5.5h14a2 2 0 0 1 2 2v7.5a2 2 0 0 1-2 2h-8.5L6.5 20v-3H5a2 2 0 0 1-2-2V7.5a2 2 0 0 1 2-2Z"/><path d="M8 11.2h.01M12 11.2h.01M16 11.2h.01"/></g><g id="d"><circle cx="12" cy="12" r="1.7"/></g><g id="e"><path d="M21 3 9.5 8.2l4.6 2 2.2 4.8Z"/><path d="M14.1 10.2 21 3"/><path d="M3 21c1.5-3.5 3.6-5.3 6.6-6" stroke-dasharray="0 2.6"/></g><g id="f"><path d="M12 19.2s-8-4.6-8-9.8C4 7 5.9 5 8.2 5c1.6 0 3 .9 3.8 2.2C12.8 5.9 14.2 5 15.8 5 18.1 5 20 7 20 9.4c0 5.2-8 9.8-8 9.8Z"/></g><g id="g"><circle cx="7.5" cy="12" r="4"/><path d="M11.5 12h10M18.5 12v3M21.5 12v2.5"/></g><g id="h"><rect x="5" y="10.5" width="14" height="10" rx="2.5"/><path d="M8 10.5v-3a4 4 0 0 1 8 0v3M12 14.5v2"/></g><g id="i"><path d="M5 5.5h14a2 2 0 0 1 2 2v7.5a2 2 0 0 1-2 2h-8.5L6.5 20v-3H5a2 2 0 0 1-2-2V7.5a2 2 0 0 1 2-2Z"/><path d="M12 14.4s-3.2-1.8-3.2-3.9c0-1 .8-1.8 1.7-1.8.7 0 1.2.4 1.5 1 .3-.6.8-1 1.5-1 .9 0 1.7.8 1.7 1.8 0 2.1-3.2 3.9-3.2 3.9Z"/></g><g id="j"><rect x="3.5" y="6" width="17" height="12.5" rx="2"/><path d="m4.2 7 7.8 6 7.8-6"/></g><g id="k"><path d="M9 17.8V6l10-2v11.8"/><circle cx="7" cy="17.8" r="2"/><circle cx="17" cy="15.8" r="2"/></g><g id="l"><rect x="7" y="3" width="10" height="18" rx="2.6"/><path d="M10.8 18h2.4M10.5 5.6h3"/></g><g id="m"><path d="M21.5 2.5 2.5 10.2l7.5 3.3 3.6 8Z"/><path d="M10 13.5 21.5 2.5"/></g><g id="n"><path d="M12 8.5v7M8.5 12h7"/></g><g id="o"><path d="M10 7.5c-2.6.8-4 2.7-4 5.6v3.4h4v-4H7.6M18 7.5c-2.6.8-4 2.7-4 5.6v3.4h4v-4h-2.4"/></g><g id="p"><circle cx="12" cy="12" r="3"/></g><g id="q"><circle cx="12" cy="12" r="8.5"/><path d="M9 10h.01M15 10h.01M8.5 14c1 1.6 2.1 2.3 3.5 2.3s2.5-.7 3.5-2.3"/></g><g id="r"><path d="M12 4c-4.9 0-8.5 3.2-8.5 7.2 0 2.1 1 3.9 2.6 5.2L5.2 20l4.1-2c.9.3 1.8.4 2.7.4 4.9 0 8.5-3.2 8.5-7.2S16.9 4 12 4Z"/><path d="M8.5 10h7M8.5 13H13"/></g><g id="s"><path d="m2.5 12.8 3.6 3.6 7.4-8M11.3 15.6l.8.8 7.4-8"/></g><g id="t"><path d="M4 12c2-3 4 3 6 0s4 3 6 0 3 2 4 0"/></g></defs><use href="#j" transform="translate(70.8 83.6)scale(0.88 0.88)rotate(13 12 12)"/><use href="#b" transform="translate(441.6 116.7)scale(-0.96 0.96)rotate(-15 12 12)"/><use href="#f" transform="translate(84.4 323.1)scale(0.92 0.92)rotate(-4 12 12)"/><use href="#c" transform="translate(289.8 142.8)scale(0.90 0.90)rotate(-16 12 12)"/><use href="#m" transform="translate(269.3 593.7)scale(1.06 1.06)rotate(17 12 12)"/><use href="#m" transform="translate(81.6 122.3)scale(1.06 1.06)rotate(5 12 12)"/><use href="#c" transform="translate(8.9 161.6)scale(0.93 0.93)rotate(-0 12 12)"/><use href="#l" transform="translate(56.9 -22.5)scale(0.96 0.96)rotate(7 12 12)"/><use href="#l" transform="translate(56.9 697.5)scale(0.96 0.96)rotate(7 12 12)"/><use href="#m" transform="translate(216.1 -18.3)scale(0.87 0.87)rotate(2 12 12)"/><use href="#m" transform="translate(216.1 701.7)scale(0.87 0.87)rotate(2 12 12)"/><use href="#c" transform="translate(105.5 638.5)scale(-1.03 1.03)rotate(7 12 12)"/><use href="#r" transform="translate(351.5 484.0)scale(1.10 1.10)rotate(-13 12 12)"/><use href="#f" transform="translate(466.4 184.5)scale(0.87 0.87)rotate(-11 12 12)"/><use href="#e" transform="translate(156.0 477.8)scale(0.95 0.95)rotate(-5 12 12)"/><use href="#f" transform="translate(106.7 -2.5)scale(-1.01 1.01)rotate(-12 12 12)"/><use href="#f" transform="translate(106.7 717.5)scale(-1.01 1.01)rotate(-12 12 12)"/><use href="#s" transform="translate(544.3 445.0)scale(0.90 0.90)rotate(-15 12 12)"/><use href="#a" transform="translate(199.3 362.6)scale(-1.01 1.01)rotate(-4 12 12)"/><use href="#e" transform="translate(642.9 188.5)scale(1.02 1.02)rotate(14 12 12)"/><use href="#h" transform="translate(79.1 290.3)scale(0.84 0.84)rotate(-1 12 12)"/><use href="#f" transform="translate(107.7 252.1)scale(1.07 1.07)rotate(-4 12 12)"/><use href="#i" transform="translate(10.1 536.5)scale(1.11 1.11)rotate(5 12 12)"/><use href="#j" transform="translate(568.7 257.1)scale(0.99 0.99)rotate(1 12 12)"/><use href="#h" transform="translate(260.4 174.0)scale(0.95 0.95)rotate(-17 12 12)"/><use href="#r" transform="translate(697.8 621.0)scale(-0.92 0.92)rotate(14 12 12)"/><use href="#i" transform="translate(487.9 115.0)scale(-0.91 0.91)rotate(-12 12 12)"/><use href="#h" transform="translate(111.9 540.2)scale(1.02 1.02)rotate(-11 12 12)"/><use href="#f" transform="translate(123.4 482.5)scale(1.10 1.10)rotate(17 12 12)"/><use href="#l" transform="translate(314.2 11.3)scale(-0.92 0.92)rotate(9 12 12)"/><use href="#r" transform="translate(129.7 645.0)scale(1.05 1.05)rotate(9 12 12)"/><use href="#f" transform="translate(218.7 472.3)scale(1.12 1.12)rotate(-16 12 12)"/><use href="#o" transform="translate(536.8 275.4)scale(0.96 0.96)rotate(7 12 12)"/><use href="#f" transform="translate(348.9 608.9)scale(0.87 0.87)rotate(-5 12 12)"/><use href="#a" transform="translate(510.4 362.1)scale(1.09 1.09)rotate(-7 12 12)"/><use href="#r" transform="translate(380.2 310.8)scale(0.99 0.99)rotate(-12 12 12)"/><use href="#m" transform="translate(294.8 470.8)scale(1.03 1.03)rotate(-14 12 12)"/><use href="#i" transform="translate(163.9 611.6)scale(0.96 0.96)rotate(-2 12 12)"/><use href="#s" transform="translate(223.3 155.2)scale(-0.94 0.94)rotate(-11 12 12)"/><use href="#b" transform="translate(682.4 -0.6)scale(0.96 0.96)rotate(12 12 12)"/><use href="#b" transform="translate(682.4 719.4)scale(0.96 0.96)rotate(12 12 12)"/><use href="#i" transform="translate(281.8 386.5)scale(0.95 0.95)rotate(16 12 12)"/><use href="#g" transform="translate(306.8 587.4)scale(0.82 0.82)rotate(-9 12 12)"/><use href="#e" transform="translate(474.3 352.4)scale(0.89 0.89)rotate(7 12 12)"/><use href="#f" transform="translate(-7.9 698.5)scale(0.87 0.87)rotate(-2 12 12)"/><use href="#f" transform="translate(712.1 698.5)scale(0.87 0.87)rotate(-2 12 12)"/><use href="#l" transform="translate(249.8 245.7)scale(1.12 1.12)rotate(-4 12 12)"/><use href="#g" transform="translate(168.3 131.3)scale(-0.85 0.85)rotate(3 12 12)"/><use href="#r" transform="translate(128.2 567.8)scale(0.97 0.97)rotate(-13 12 12)"/><use href="#g" transform="translate(649.5 314.6)scale(-0.85 0.85)rotate(-17 12 12)"/><use href="#q" transform="translate(240.4 354.0)scale(-0.86 0.86)rotate(15 12 12)"/><use href="#j" transform="translate(637.2 693.8)scale(0.90 0.90)rotate(-18 12 12)"/><use href="#c" transform="translate(502.8 276.0)scale(1.06 1.06)rotate(5 12 12)"/><use href="#b" transform="translate(249.2 556.6)scale(-0.97 0.97)rotate(1 12 12)"/><use href="#o" transform="translate(234.6 403.0)scale(0.97 0.97)rotate(-16 12 12)"/><use href="#q" transform="translate(361.7 365.6)scale(1.06 1.06)rotate(13 12 12)"/><use href="#i" transform="translate(592.8 627.9)scale(1.10 1.10)rotate(4 12 12)"/><use href="#b" transform="translate(274.3 270.9)scale(0.95 0.95)rotate(-6 12 12)"/><use href="#s" transform="translate(518.3 54.1)scale(0.95 0.95)rotate(-5 12 12)"/><use href="#h" transform="translate(165.4 34.5)scale(0.84 0.84)rotate(6 12 12)"/><use href="#o" transform="translate(208.4 585.1)scale(0.89 0.89)rotate(15 12 12)"/><use href="#m" transform="translate(461.7 5.2)scale(-0.88 0.88)rotate(-1 12 12)"/><use href="#c" transform="translate(331.0 10.4)scale(0.99 0.99)rotate(6 12 12)"/><use href="#l" transform="translate(23.3 40.0)scale(-0.94 0.94)rotate(-6 12 12)"/><use href="#c" transform="translate(617.8 281.4)scale(1.09 1.09)rotate(11 12 12)"/><use href="#j" transform="translate(29.2 573.0)scale(1.03 1.03)rotate(11 12 12)"/><use href="#k" transform="translate(337.4 235.7)scale(0.90 0.90)rotate(-6 12 12)"/><use href="#h" transform="translate(624.3 240.7)scale(0.98 0.98)rotate(-4 12 12)"/><use href="#o" transform="translate(401.4 612.4)scale(1.09 1.09)rotate(9 12 12)"/><use href="#g" transform="translate(73.0 258.1)scale(0.86 0.86)rotate(1 12 12)"/><use href="#r" transform="translate(33.4 133.2)scale(0.98 0.98)rotate(-16 12 12)"/><use href="#i" transform="translate(125.3 174.0)scale(-0.86 0.86)rotate(6 12 12)"/><use href="#o" transform="translate(347.0 521.9)scale(0.87 0.87)rotate(-17 12 12)"/><use href="#q" transform="translate(670.9 149.6)scale(0.82 0.82)rotate(-8 12 12)"/><use href="#c" transform="translate(136.1 16.8)scale(0.91 0.91)rotate(16 12 12)"/><use href="#s" transform="translate(587.0 356.1)scale(0.93 0.93)rotate(-17 12 12)"/><use href="#c" transform="translate(280.5 453.0)scale(-1.05 1.05)rotate(16 12 12)"/><use href="#m" transform="translate(186.7 255.2)scale(1.03 1.03)rotate(-13 12 12)"/><use href="#b" transform="translate(618.1 553.2)scale(0.99 0.99)rotate(-15 12 12)"/><use href="#s" transform="translate(464.3 410.7)scale(0.91 0.91)rotate(-6 12 12)"/><use href="#o" transform="translate(610.2 108.2)scale(0.93 0.93)rotate(-6 12 12)"/><use href="#s" transform="translate(696.8 103.6)scale(-1.00 1.00)rotate(16 12 12)"/><use href="#k" transform="translate(621.2 343.6)scale(1.03 1.03)rotate(1 12 12)"/><use href="#c" transform="translate(519.2 691.2)scale(-1.03 1.03)rotate(-14 12 12)"/><use href="#i" transform="translate(13.8 217.6)scale(0.95 0.95)rotate(-12 12 12)"/><use href="#s" transform="translate(100.7 213.1)scale(-0.90 0.90)rotate(-5 12 12)"/><use href="#i" transform="translate(614.9 174.3)scale(-1.01 1.01)rotate(-10 12 12)"/><use href="#m" transform="translate(283.0 73.3)scale(0.94 0.94)rotate(13 12 12)"/><use href="#a" transform="translate(70.8 105.0)scale(-0.97 0.97)rotate(-10 12 12)"/><use href="#m" transform="translate(541.7 163.7)scale(0.82 0.82)rotate(2 12 12)"/><use href="#a" transform="translate(316.0 440.4)scale(1.00 1.00)rotate(-1 12 12)"/><use href="#o" transform="translate(45.3 609.2)scale(0.83 0.83)rotate(6 12 12)"/><use href="#f" transform="translate(562.8 417.2)scale(0.86 0.86)rotate(2 12 12)"/><use href="#e" transform="translate(166.4 65.9)scale(-0.86 0.86)rotate(16 12 12)"/><use href="#f" transform="translate(452.7 661.5)scale(-0.84 0.84)rotate(-14 12 12)"/><use href="#c" transform="translate(207.1 410.7)scale(-0.94 0.94)rotate(-10 12 12)"/><use href="#g" transform="translate(150.2 684.4)scale(0.95 0.95)rotate(-18 12 12)"/><use href="#o" transform="translate(357.0 156.8)scale(1.04 1.04)rotate(-4 12 12)"/><use href="#e" transform="translate(667.3 339.1)scale(0.84 0.84)rotate(12 12 12)"/><use href="#r" transform="translate(703.6 543.7)scale(-1.10 1.10)rotate(1 12 12)"/><use href="#e" transform="translate(201.5 290.9)scale(0.96 0.96)rotate(3 12 12)"/><use href="#b" transform="translate(-3.5 264.5)scale(0.92 0.92)rotate(15 12 12)"/><use href="#b" transform="translate(716.5 264.5)scale(0.92 0.92)rotate(15 12 12)"/><use href="#c" transform="translate(511.7 206.2)scale(1.08 1.08)rotate(-12 12 12)"/><use href="#j" transform="translate(439.5 576.8)scale(0.99 0.99)rotate(9 12 12)"/><use href="#o" transform="translate(167.5 91.8)scale(0.93 0.93)rotate(-3 12 12)"/><use href="#c" transform="translate(661.1 224.8)scale(0.91 0.91)rotate(-5 12 12)"/><use href="#c" transform="translate(683.9 654.9)scale(1.03 1.03)rotate(-1 12 12)"/><use href="#f" transform="translate(16.3 607.9)scale(-0.83 0.83)rotate(14 12 12)"/><use href="#f" transform="translate(736.3 607.9)scale(-0.83 0.83)rotate(14 12 12)"/><use href="#e" transform="translate(487.9 459.7)scale(1.04 1.04)rotate(-18 12 12)"/><use href="#l" transform="translate(405.7 190.9)scale(0.95 0.95)rotate(5 12 12)"/><use href="#f" transform="translate(575.8 80.2)scale(0.88 0.88)rotate(-8 12 12)"/><use href="#b" transform="translate(88.2 457.6)scale(-0.94 0.94)rotate(17 12 12)"/><use href="#a" transform="translate(377.6 689.5)scale(0.96 0.96)rotate(-9 12 12)"/><use href="#r" transform="translate(-2.2 390.7)scale(1.09 1.09)rotate(-14 12 12)"/><use href="#r" transform="translate(717.8 390.7)scale(1.09 1.09)rotate(-14 12 12)"/><use href="#a" transform="translate(398.8 204.0)scale(-0.95 0.95)rotate(-4 12 12)"/><use href="#a" transform="translate(237.8 63.7)scale(0.98 0.98)rotate(13 12 12)"/><use href="#r" transform="translate(457.7 536.6)scale(-0.87 0.87)rotate(-3 12 12)"/><use href="#m" transform="translate(601.3 583.3)scale(0.92 0.92)rotate(-4 12 12)"/><use href="#l" transform="translate(608.1 480.9)scale(0.84 0.84)rotate(-11 12 12)"/><use href="#r" transform="translate(681.8 446.1)scale(-0.97 0.97)rotate(-16 12 12)"/><use href="#e" transform="translate(615.3 393.0)scale(0.90 0.90)rotate(-13 12 12)"/><use href="#k" transform="translate(142.6 371.0)scale(-0.95 0.95)rotate(0 12 12)"/><use href="#a" transform="translate(627.5 49.5)scale(0.94 0.94)rotate(-9 12 12)"/><use href="#c" transform="translate(306.3 261.2)scale(0.88 0.88)rotate(-2 12 12)"/><use href="#m" transform="translate(378.7 69.4)scale(0.95 0.95)rotate(-14 12 12)"/><use href="#b" transform="translate(488.8 588.1)scale(0.99 0.99)rotate(14 12 12)"/><use href="#i" transform="translate(257.1 686.7)scale(1.09 1.09)rotate(-2 12 12)"/><use href="#i" transform="translate(32.7 65.0)scale(1.01 1.01)rotate(-9 12 12)"/><use href="#c" transform="translate(526.6 96.3)scale(1.08 1.08)rotate(-9 12 12)"/><use href="#o" transform="translate(-12.7 188.5)scale(0.86 0.86)rotate(18 12 12)"/><use href="#o" transform="translate(707.3 188.5)scale(0.86 0.86)rotate(18 12 12)"/><use href="#h" transform="translate(173.2 226.7)scale(0.91 0.91)rotate(-9 12 12)"/><use href="#c" transform="translate(183.1 191.2)scale(1.05 1.05)rotate(8 12 12)"/><use href="#i" transform="translate(76.7 363.8)scale(1.09 1.09)rotate(-11 12 12)"/><use href="#s" transform="translate(464.8 553.9)scale(1.05 1.05)rotate(9 12 12)"/><use href="#e" transform="translate(110.5 -22.1)scale(1.09 1.09)rotate(-10 12 12)"/><use href="#e" transform="translate(110.5 697.9)scale(1.09 1.09)rotate(-10 12 12)"/><use href="#b" transform="translate(395.3 400.5)scale(0.89 0.89)rotate(-4 12 12)"/><use href="#e" transform="translate(493.0 77.7)scale(-0.94 0.94)rotate(-3 12 12)"/><use href="#j" transform="translate(324.5 391.7)scale(0.94 0.94)rotate(-13 12 12)"/><use href="#e" transform="translate(34.3 244.5)scale(0.94 0.94)rotate(17 12 12)"/><use href="#f" transform="translate(567.0 561.6)scale(1.00 1.00)rotate(-17 12 12)"/><use href="#l" transform="translate(266.2 102.3)scale(0.87 0.87)rotate(7 12 12)"/><use href="#r" transform="translate(276.3 200.1)scale(1.03 1.03)rotate(2 12 12)"/><use href="#r" transform="translate(353.6 101.1)scale(0.84 0.84)rotate(-12 12 12)"/><use href="#h" transform="translate(530.7 595.9)scale(1.05 1.05)rotate(-4 12 12)"/><use href="#k" transform="translate(402.2 453.9)scale(-0.94 0.94)rotate(8 12 12)"/><use href="#r" transform="translate(0.0 230.1)scale(-0.91 0.91)rotate(3 12 12)"/><use href="#r" transform="translate(720.0 230.1)scale(-0.91 0.91)rotate(3 12 12)"/><use href="#i" transform="translate(592.1 303.9)scale(0.91 0.91)rotate(-5 12 12)"/><use href="#m" transform="translate(118.0 597.4)scale(-1.01 1.01)rotate(-2 12 12)"/><use href="#j" transform="translate(117.3 307.7)scale(1.10 1.10)rotate(-9 12 12)"/><use href="#i" transform="translate(213.2 430.5)scale(0.92 0.92)rotate(-1 12 12)"/><use href="#o" transform="translate(561.1 31.2)scale(-0.86 0.86)rotate(0 12 12)"/><use href="#l" transform="translate(395.7 341.0)scale(1.06 1.06)rotate(4 12 12)"/><use href="#a" transform="translate(212.7 520.5)scale(0.96 0.96)rotate(-15 12 12)"/><use href="#s" transform="translate(28.9 308.1)scale(0.89 0.89)rotate(-1 12 12)"/><use href="#b" transform="translate(340.9 303.2)scale(1.08 1.08)rotate(17 12 12)"/><use href="#j" transform="translate(641.7 588.9)scale(1.04 1.04)rotate(14 12 12)"/><use href="#l" transform="translate(636.3 150.7)scale(-0.94 0.94)rotate(-2 12 12)"/><use href="#b" transform="translate(138.3 90.7)scale(-1.03 1.03)rotate(-6 12 12)"/><use href="#k" transform="translate(249.4 108.8)scale(-0.83 0.83)rotate(-14 12 12)"/><use href="#o" transform="translate(662.9 380.5)scale(1.08 1.08)rotate(9 12 12)"/><use href="#m" transform="translate(523.3 541.5)scale(-1.11 1.11)rotate(17 12 12)"/><use href="#a" transform="translate(559.1 302.8)scale(1.04 1.04)rotate(-2 12 12)"/><use href="#i" transform="translate(318.6 80.4)scale(0.87 0.87)rotate(13 12 12)"/><use href="#j" transform="translate(667.2 68.5)scale(0.88 0.88)rotate(2 12 12)"/><use href="#j" transform="translate(305.9 686.9)scale(1.06 1.06)rotate(-7 12 12)"/><use href="#a" transform="translate(-6.8 563.5)scale(0.84 0.84)rotate(14 12 12)"/><use href="#a" transform="translate(713.2 563.5)scale(0.84 0.84)rotate(14 12 12)"/><use href="#s" transform="translate(120.9 499.6)scale(-1.01 1.01)rotate(17 12 12)"/><use href="#b" transform="translate(162.3 342.5)scale(-0.84 0.84)rotate(-13 12 12)"/><use href="#b" transform="translate(593.6 685.8)scale(1.01 1.01)rotate(-13 12 12)"/><use href="#s" transform="translate(233.3 217.7)scale(1.12 1.12)rotate(-4 12 12)"/><use href="#a" transform="translate(186.9 652.3)scale(-0.90 0.90)rotate(8 12 12)"/><use href="#a" transform="translate(2.8 360.6)scale(-1.11 1.11)rotate(-18 12 12)"/><use href="#a" transform="translate(722.8 360.6)scale(-1.11 1.11)rotate(-18 12 12)"/><use href="#k" transform="translate(593.0 7.8)scale(-1.05 1.05)rotate(-14 12 12)"/><use href="#h" transform="translate(623.7 651.7)scale(0.95 0.95)rotate(-16 12 12)"/><use href="#b" transform="translate(137.6 168.7)scale(0.99 0.99)rotate(9 12 12)"/><use href="#i" transform="translate(156.7 523.8)scale(0.88 0.88)rotate(-18 12 12)"/><use href="#s" transform="translate(310.7 552.8)scale(1.10 1.10)rotate(16 12 12)"/><use href="#j" transform="translate(556.6 519.0)scale(-0.94 0.94)rotate(-15 12 12)"/><use href="#g" transform="translate(542.6 343.5)scale(0.85 0.85)rotate(-8 12 12)"/><use href="#b" transform="translate(570.0 373.6)scale(-0.92 0.92)rotate(17 12 12)"/><use href="#r" transform="translate(433.6 447.0)scale(1.10 1.10)rotate(1 12 12)"/><use href="#j" transform="translate(245.1 668.5)scale(-0.93 0.93)rotate(-5 12 12)"/><use href="#r" transform="translate(490.5 138.8)scale(1.09 1.09)rotate(3 12 12)"/><use href="#b" transform="translate(190.2 67.2)scale(0.99 0.99)rotate(17 12 12)"/><use href="#m" transform="translate(455.0 376.8)scale(1.08 1.08)rotate(-18 12 12)"/><use href="#s" transform="translate(307.8 179.3)scale(1.04 1.04)rotate(-1 12 12)"/><use href="#h" transform="translate(406.0 558.9)scale(1.01 1.01)rotate(-11 12 12)"/><use href="#q" transform="translate(239.5 20.8)scale(0.97 0.97)rotate(-13 12 12)"/><use href="#f" transform="translate(264.9 636.8)scale(1.00 1.00)rotate(6 12 12)"/><use href="#k" transform="translate(495.9 652.4)scale(-1.01 1.01)rotate(-2 12 12)"/><use href="#r" transform="translate(116.8 427.3)scale(0.93 0.93)rotate(17 12 12)"/><use href="#c" transform="translate(433.6 261.1)scale(-0.83 0.83)rotate(-12 12 12)"/><use href="#j" transform="translate(645.7 476.3)scale(0.92 0.92)rotate(12 12 12)"/><use href="#q" transform="translate(-18.8 73.6)scale(1.08 1.08)rotate(-17 12 12)"/><use href="#q" transform="translate(701.2 73.6)scale(1.08 1.08)rotate(-17 12 12)"/><use href="#h" transform="translate(621.5 6.4)scale(1.06 1.06)rotate(17 12 12)"/><use href="#b" transform="translate(38.6 670.2)scale(-0.90 0.90)rotate(11 12 12)"/><use href="#i" transform="translate(372.9 544.0)scale(1.10 1.10)rotate(16 12 12)"/><use href="#b" transform="translate(460.0 321.0)scale(0.95 0.95)rotate(1 12 12)"/><use href="#r" transform="translate(566.5 638.1)scale(-0.98 0.98)rotate(7 12 12)"/><use href="#s" transform="translate(633.4 518.4)scale(-0.91 0.91)rotate(-10 12 12)"/><use href="#h" transform="translate(495.3 310.0)scale(0.83 0.83)rotate(-13 12 12)"/><use href="#c" transform="translate(430.3 158.9)scale(-0.86 0.86)rotate(7 12 12)"/><use href="#c" transform="translate(698.1 488.7)scale(-0.95 0.95)rotate(14 12 12)"/><use href="#c" transform="translate(419.4 422.6)scale(0.83 0.83)rotate(17 12 12)"/><use href="#f" transform="translate(7.8 477.8)scale(0.82 0.82)rotate(8 12 12)"/><use href="#j" transform="translate(417.9 228.0)scale(0.98 0.98)rotate(-15 12 12)"/><use href="#b" transform="translate(44.1 372.8)scale(0.85 0.85)rotate(10 12 12)"/><use href="#f" transform="translate(555.0 676.2)scale(-0.99 0.99)rotate(0 12 12)"/><use href="#a" transform="translate(330.6 635.5)scale(0.95 0.95)rotate(15 12 12)"/><use href="#h" transform="translate(433.4 485.3)scale(0.88 0.88)rotate(-1 12 12)"/><use href="#m" transform="translate(450.3 258.1)scale(0.93 0.93)rotate(15 12 12)"/><use href="#m" transform="translate(41.0 337.7)scale(0.98 0.98)rotate(15 12 12)"/><use href="#g" transform="translate(437.0 509.3)scale(-1.11 1.11)rotate(6 12 12)"/><use href="#q" transform="translate(411.2 83.1)scale(1.00 1.00)rotate(-3 12 12)"/><use href="#c" transform="translate(644.9 407.5)scale(1.08 1.08)rotate(-12 12 12)"/><use href="#r" transform="translate(503.6 8.0)scale(0.99 0.99)rotate(-1 12 12)"/><use href="#c" transform="translate(458.0 37.7)scale(-1.02 1.02)rotate(2 12 12)"/><use href="#i" transform="translate(472.2 694.2)scale(-0.91 0.91)rotate(-8 12 12)"/><use href="#e" transform="translate(81.4 406.3)scale(0.94 0.94)rotate(7 12 12)"/><use href="#r" transform="translate(91.5 33.5)scale(0.95 0.95)rotate(6 12 12)"/><use href="#i" transform="translate(-7.6 125.4)scale(0.85 0.85)rotate(-7 12 12)"/><use href="#i" transform="translate(712.4 125.4)scale(0.85 0.85)rotate(-7 12 12)"/><use href="#a" transform="translate(273.8 307.8)scale(1.01 1.01)rotate(3 12 12)"/><use href="#g" transform="translate(245.0 368.5)scale(0.99 0.99)rotate(12 12 12)"/><use href="#m" transform="translate(222.6 626.9)scale(-0.92 0.92)rotate(-3 12 12)"/><use href="#q" transform="translate(52.4 543.2)scale(1.10 1.10)rotate(-11 12 12)"/><use href="#i" transform="translate(-3.6 648.0)scale(0.84 0.84)rotate(-8 12 12)"/><use href="#i" transform="translate(716.4 648.0)scale(0.84 0.84)rotate(-8 12 12)"/><use href="#f" transform="translate(163.6 556.4)scale(1.07 1.07)rotate(6 12 12)"/><use href="#a" transform="translate(437.0 613.2)scale(1.00 1.00)rotate(12 12 12)"/><use href="#s" transform="translate(177.7 -13.3)scale(0.90 0.90)rotate(-14 12 12)"/><use href="#s" transform="translate(177.7 706.7)scale(0.90 0.90)rotate(-14 12 12)"/><use href="#h" transform="translate(42.9 650.1)scale(1.11 1.11)rotate(-3 12 12)"/><use href="#j" transform="translate(379.5 501.2)scale(1.08 1.08)rotate(-16 12 12)"/><use href="#m" transform="translate(615.9 432.8)scale(-1.12 1.12)rotate(17 12 12)"/><use href="#e" transform="translate(309.5 505.5)scale(0.82 0.82)rotate(-9 12 12)"/><use href="#o" transform="translate(199.7 323.8)scale(-0.93 0.93)rotate(1 12 12)"/><use href="#i" transform="translate(75.5 571.5)scale(0.91 0.91)rotate(-2 12 12)"/><use href="#m" transform="translate(617.5 30.6)scale(-1.06 1.06)rotate(-18 12 12)"/><use href="#h" transform="translate(45.0 5.8)scale(-0.94 0.94)rotate(-6 12 12)"/><use href="#k" transform="translate(567.1 139.2)scale(0.95 0.95)rotate(-17 12 12)"/><use href="#k" transform="translate(325.4 48.5)scale(0.99 0.99)rotate(-16 12 12)"/><use href="#m" transform="translate(693.7 300.7)scale(0.83 0.83)rotate(0 12 12)"/><use href="#h" transform="translate(25.1 434.2)scale(1.03 1.03)rotate(-11 12 12)"/><use href="#r" transform="translate(-4.6 322.0)scale(0.89 0.89)rotate(-11 12 12)"/><use href="#r" transform="translate(715.4 322.0)scale(0.89 0.89)rotate(-11 12 12)"/><use href="#g" transform="translate(312.2 116.2)scale(0.95 0.95)rotate(9 12 12)"/><use href="#q" transform="translate(6.0 519.4)scale(-0.86 0.86)rotate(4 12 12)"/><use href="#q" transform="translate(726.0 519.4)scale(-0.86 0.86)rotate(4 12 12)"/><use href="#c" transform="translate(299.2 624.8)scale(0.99 0.99)rotate(-2 12 12)"/><use href="#g" transform="translate(663.4 27.0)scale(0.94 0.94)rotate(15 12 12)"/><use href="#o" transform="translate(150.0 411.9)scale(0.84 0.84)rotate(-7 12 12)"/><use href="#b" transform="translate(398.2 -1.6)scale(1.02 1.02)rotate(-8 12 12)"/><use href="#b" transform="translate(398.2 718.4)scale(1.02 1.02)rotate(-8 12 12)"/><use href="#r" transform="translate(114.8 123.3)scale(0.91 0.91)rotate(-2 12 12)"/><use href="#g" transform="translate(362.2 193.4)scale(-1.03 1.03)rotate(-16 12 12)"/><use href="#i" transform="translate(376.5 400.8)scale(-0.92 0.92)rotate(17 12 12)"/><use href="#h" transform="translate(274.5 425.6)scale(1.01 1.01)rotate(1 12 12)"/><use href="#c" transform="translate(240.3 325.9)scale(1.06 1.06)rotate(-10 12 12)"/><use href="#h" transform="translate(358.3 432.7)scale(0.84 0.84)rotate(9 12 12)"/><use href="#e" transform="translate(252.7 609.5)scale(-0.92 0.92)rotate(-0 12 12)"/><use href="#s" transform="translate(430.9 336.2)scale(0.83 0.83)rotate(-2 12 12)"/><use href="#k" transform="translate(296.8 351.6)scale(0.88 0.88)rotate(1 12 12)"/><use href="#q" transform="translate(461.2 509.2)scale(0.85 0.85)rotate(-7 12 12)"/><use href="#b" transform="translate(60.6 162.5)scale(1.07 1.07)rotate(-6 12 12)"/><use href="#r" transform="translate(345.0 685.9)scale(0.89 0.89)rotate(12 12 12)"/><use href="#c" transform="translate(27.4 510.6)scale(1.03 1.03)rotate(17 12 12)"/><use href="#s" transform="translate(674.5 274.0)scale(0.92 0.92)rotate(3 12 12)"/><use href="#b" transform="translate(718.2 444.3)scale(-0.99 0.99)rotate(7 12 12)"/><use href="#j" transform="translate(497.8 623.9)scale(0.84 0.84)rotate(2 12 12)"/><use href="#a" transform="translate(60.8 506.5)scale(1.07 1.07)rotate(-12 12 12)"/><use href="#e" transform="translate(328.2 357.3)scale(0.86 0.86)rotate(-5 12 12)"/><use href="#i" transform="translate(137.7 261.5)scale(1.10 1.10)rotate(10 12 12)"/><use href="#k" transform="translate(111.0 214.9)scale(0.87 0.87)rotate(14 12 12)"/><use href="#e" transform="translate(348.0 274.5)scale(0.83 0.83)rotate(10 12 12)"/><use href="#j" transform="translate(308.9 323.5)scale(0.83 0.83)rotate(-10 12 12)"/><use href="#o" transform="translate(419.8 301.1)scale(0.96 0.96)rotate(16 12 12)"/><use href="#q" transform="translate(279.9 565.5)scale(-1.01 1.01)rotate(13 12 12)"/><use href="#r" transform="translate(488.9 230.9)scale(-0.83 0.83)rotate(6 12 12)"/><use href="#l" transform="translate(194.3 120.1)scale(0.93 0.93)rotate(-13 12 12)"/><use href="#s" transform="translate(371.7 16.0)scale(1.07 1.07)rotate(11 12 12)"/><use href="#e" transform="translate(579.5 189.0)scale(-1.02 1.02)rotate(9 12 12)"/><use href="#f" transform="translate(538.8 241.8)scale(0.87 0.87)rotate(6 12 12)"/><use href="#g" transform="translate(263.7 143.1)scale(-1.00 1.00)rotate(-5 12 12)"/><use href="#a" transform="translate(603.2 207.7)scale(0.95 0.95)rotate(16 12 12)"/><use href="#j" transform="translate(35.4 194.7)scale(0.98 0.98)rotate(1 12 12)"/><use href="#a" transform="translate(463.5 26.1)scale(0.99 0.99)rotate(-3 12 12)"/><use href="#j" transform="translate(136.4 454.2)scale(0.93 0.93)rotate(11 12 12)"/><use href="#q" transform="translate(526.1 657.8)scale(-0.87 0.87)rotate(13 12 12)"/><use href="#q" transform="translate(493.2 410.7)scale(1.11 1.11)rotate(4 12 12)"/><use href="#k" transform="translate(206.7 34.0)scale(0.84 0.84)rotate(17 12 12)"/><use href="#g" transform="translate(166.7 201.9)scale(-0.83 0.83)rotate(-11 12 12)"/><use href="#o" transform="translate(522.8 487.2)scale(0.98 0.98)rotate(-5 12 12)"/><use href="#f" transform="translate(421.3 366.3)scale(1.03 1.03)rotate(13 12 12)"/><use href="#e" transform="translate(562.5 694.3)scale(0.91 0.91)rotate(4 12 12)"/><use href="#i" transform="translate(378.1 246.4)scale(0.95 0.95)rotate(-5 12 12)"/><use href="#e" transform="translate(570.6 475.0)scale(0.95 0.95)rotate(-6 12 12)"/><use href="#c" transform="translate(303.1 538.7)scale(-1.02 1.02)rotate(-15 12 12)"/><use href="#c" transform="translate(42.9 35.9)scale(0.83 0.83)rotate(-17 12 12)"/><use href="#j" transform="translate(327.7 147.0)scale(0.87 0.87)rotate(-8 12 12)"/><use href="#s" transform="translate(390.7 652.8)scale(0.84 0.84)rotate(17 12 12)"/><use href="#b" transform="translate(689.7 583.9)scale(1.11 1.11)rotate(17 12 12)"/><use href="#r" transform="translate(344.0 560.3)scale(0.98 0.98)rotate(3 12 12)"/><use href="#c" transform="translate(639.0 95.5)scale(1.07 1.07)rotate(4 12 12)"/><use href="#q" transform="translate(376.5 590.6)scale(0.89 0.89)rotate(-11 12 12)"/><use href="#c" transform="translate(359.5 335.6)scale(0.87 0.87)rotate(8 12 12)"/><use href="#s" transform="translate(247.9 507.3)scale(1.10 1.10)rotate(15 12 12)"/><use href="#o" transform="translate(131.3 604.5)scale(0.94 0.94)rotate(9 12 12)"/><use href="#e" transform="translate(309.1 234.9)scale(-0.93 0.93)rotate(12 12 12)"/><use href="#f" transform="translate(190.3 293.0)scale(-0.85 0.85)rotate(-13 12 12)"/><use href="#c" transform="translate(569.8 524.1)scale(0.92 0.92)rotate(-10 12 12)"/><use href="#a" transform="translate(383.3 119.9)scale(0.87 0.87)rotate(-9 12 12)"/><use href="#k" transform="translate(134.0 58.2)scale(-0.92 0.92)rotate(-6 12 12)"/><use href="#i" transform="translate(626.1 440.2)scale(0.93 0.93)rotate(2 12 12)"/><use href="#r" transform="translate(578.8 384.6)scale(1.11 1.11)rotate(0 12 12)"/><use href="#i" transform="translate(234.9 293.1)scale(0.90 0.90)rotate(-9 12 12)"/><use href="#m" transform="translate(207.9 446.4)scale(-0.91 0.91)rotate(-2 12 12)"/><use href="#s" transform="translate(443.1 153.1)scale(0.84 0.84)rotate(8 12 12)"/><use href="#b" transform="translate(221.3 189.0)scale(1.06 1.06)rotate(16 12 12)"/><use href="#q" transform="translate(482.1 287.0)scale(-1.08 1.08)rotate(-9 12 12)"/><use href="#q" transform="translate(182.9 500.3)scale(1.04 1.04)rotate(-12 12 12)"/><use href="#i" transform="translate(72.4 668.9)scale(1.02 1.02)rotate(-16 12 12)"/><use href="#e" transform="translate(647.1 617.9)scale(-0.96 0.96)rotate(-1 12 12)"/><use href="#l" transform="translate(549.0 309.4)scale(-0.82 0.82)rotate(8 12 12)"/><use href="#o" transform="translate(529.3 399.0)scale(0.98 0.98)rotate(9 12 12)"/><use href="#g" transform="translate(647.3 527.1)scale(1.07 1.07)rotate(6 12 12)"/><use href="#o" transform="translate(517.2 567.0)scale(1.07 1.07)rotate(10 12 12)"/><use href="#c" transform="translate(120.3 464.9)scale(-0.83 0.83)rotate(-8 12 12)"/><use href="#b" transform="translate(11.3 100.7)scale(0.87 0.87)rotate(-10 12 12)"/><use href="#c" transform="translate(588.8 607.5)scale(-0.96 0.96)rotate(17 12 12)"/><use href="#k" transform="translate(566.5 219.8)scale(1.00 1.00)rotate(-6 12 12)"/><use href="#c" transform="translate(67.2 276.6)scale(-0.95 0.95)rotate(16 12 12)"/><use href="#k" transform="translate(244.0 261.8)scale(-0.92 0.92)rotate(12 12 12)"/><use href="#q" transform="translate(499.7 172.6)scale(0.92 0.92)rotate(0 12 12)"/><use href="#e" transform="translate(404.1 41.2)scale(0.84 0.84)rotate(-15 12 12)"/><use href="#a" transform="translate(666.4 687.9)scale(1.09 1.09)rotate(12 12 12)"/><use href="#g" transform="translate(686.3 412.8)scale(0.87 0.87)rotate(14 12 12)"/><use href="#j" transform="translate(297.8 41.4)scale(-0.97 0.97)rotate(5 12 12)"/><use href="#c" transform="translate(513.8 509.6)scale(-0.84 0.84)rotate(3 12 12)"/><use href="#r" transform="translate(227.1 230.6)scale(-0.88 0.88)rotate(-6 12 12)"/><use href="#k" transform="translate(305.6 655.3)scale(1.04 1.04)rotate(-13 12 12)"/><use href="#c" transform="translate(711.6 46.9)scale(-0.85 0.85)rotate(-14 12 12)"/><use href="#r" transform="translate(210.9 385.3)scale(0.89 0.89)rotate(7 12 12)"/><use href="#k" transform="translate(30.6 350.0)scale(-0.94 0.94)rotate(7 12 12)"/><use href="#k" transform="translate(572.8 655.5)scale(1.08 1.08)rotate(6 12 12)"/><use href="#b" transform="translate(465.5 206.0)scale(-1.00 1.00)rotate(9 12 12)"/><use href="#c" transform="translate(511.9 439.5)scale(1.00 1.00)rotate(16 12 12)"/><use href="#r" transform="translate(336.5 289.5)scale(-1.06 1.06)rotate(10 12 12)"/><use href="#l" transform="translate(651.7 560.4)scale(0.88 0.88)rotate(9 12 12)"/><use href="#a" transform="translate(519.2 244.0)scale(-0.92 0.92)rotate(13 12 12)"/><use href="#i" transform="translate(533.0 -3.8)scale(1.01 1.01)rotate(3 12 12)"/><use href="#i" transform="translate(533.0 716.2)scale(1.01 1.01)rotate(3 12 12)"/><use href="#g" transform="translate(61.3 406.2)scale(-0.83 0.83)rotate(-15 12 12)"/><use href="#e" transform="translate(559.0 108.8)scale(0.87 0.87)rotate(-1 12 12)"/><use href="#a" transform="translate(137.8 233.1)scale(0.88 0.88)rotate(2 12 12)"/><use href="#l" transform="translate(211.3 674.1)scale(-0.89 0.89)rotate(5 12 12)"/><use href="#r" transform="translate(41.1 480.6)scale(1.07 1.07)rotate(-8 12 12)"/><use href="#l" transform="translate(436.1 688.6)scale(-0.86 0.86)rotate(-4 12 12)"/><use href="#o" transform="translate(520.9 134.1)scale(1.11 1.11)rotate(3 12 12)"/><use href="#h" transform="translate(642.3 130.2)scale(1.02 1.02)rotate(9 12 12)"/><use href="#k" transform="translate(104.4 663.0)scale(1.02 1.02)rotate(11 12 12)"/><use href="#g" transform="translate(548.1 62.8)scale(0.97 0.97)rotate(4 12 12)"/><use href="#m" transform="translate(496.5 97.1)scale(0.94 0.94)rotate(-3 12 12)"/><use href="#m" transform="translate(678.1 648.0)scale(-1.01 1.01)rotate(12 12 12)"/><use href="#f" transform="translate(384.1 276.1)scale(1.10 1.10)rotate(11 12 12)"/><use href="#q" transform="translate(606.3 74.2)scale(0.91 0.91)rotate(-2 12 12)"/><use href="#o" transform="translate(308.0 212.3)scale(0.90 0.90)rotate(16 12 12)"/><use href="#o" transform="translate(685.0 300.3)scale(-1.10 1.10)rotate(14 12 12)"/><use href="#p" transform="translate(475.4 483.4)scale(0.46 0.46)rotate(-4 12 12)"/><use href="#d" transform="translate(41.8 536.2)scale(0.50 0.50)rotate(-12 12 12)"/><use href="#t" transform="translate(215.8 62.1)scale(0.55 0.55)rotate(-12 12 12)"/><use href="#d" transform="translate(693.7 464.9)scale(-0.54 0.54)rotate(-15 12 12)"/><use href="#n" transform="translate(214.2 334.1)scale(0.60 0.60)rotate(7 12 12)"/><use href="#p" transform="translate(295.7 610.5)scale(0.43 0.43)rotate(16 12 12)"/><use href="#p" transform="translate(521.8 -11.9)scale(0.56 0.56)rotate(-4 12 12)"/><use href="#p" transform="translate(521.8 708.1)scale(0.56 0.56)rotate(-4 12 12)"/><use href="#t" transform="translate(45.7 118.0)scale(-0.51 0.51)rotate(-0 12 12)"/><use href="#n" transform="translate(264.2 139.2)scale(0.51 0.51)rotate(3 12 12)"/><use href="#d" transform="translate(162.6 178.6)scale(0.61 0.61)rotate(-10 12 12)"/><use href="#d" transform="translate(186.3 594.3)scale(-0.55 0.55)rotate(12 12 12)"/><use href="#d" transform="translate(564.4 132.7)scale(-0.53 0.53)rotate(-7 12 12)"/><use href="#d" transform="translate(405.5 594.5)scale(0.56 0.56)rotate(14 12 12)"/><use href="#t" transform="translate(669.0 431.5)scale(0.47 0.47)rotate(14 12 12)"/><use href="#t" transform="translate(51.7 450.5)scale(0.43 0.43)rotate(-13 12 12)"/><use href="#d" transform="translate(703.9 486.8)scale(0.53 0.53)rotate(-7 12 12)"/><use href="#t" transform="translate(450.2 116.0)scale(0.47 0.47)rotate(-16 12 12)"/><use href="#d" transform="translate(204.9 648.0)scale(-0.57 0.57)rotate(-8 12 12)"/><use href="#n" transform="translate(267.0 75.0)scale(0.47 0.47)rotate(-8 12 12)"/><use href="#p" transform="translate(409.4 321.9)scale(0.43 0.43)rotate(-13 12 12)"/><use href="#d" transform="translate(109.4 18.3)scale(0.58 0.58)rotate(-14 12 12)"/><use href="#p" transform="translate(383.4 640.0)scale(-0.53 0.53)rotate(-4 12 12)"/><use href="#t" transform="translate(72.3 598.2)scale(0.61 0.61)rotate(17 12 12)"/><use href="#p" transform="translate(61.8 206.5)scale(0.53 0.53)rotate(-11 12 12)"/><use href="#d" transform="translate(342.5 448.5)scale(0.58 0.58)rotate(-11 12 12)"/><use href="#d" transform="translate(405.9 540.0)scale(0.44 0.44)rotate(-7 12 12)"/><use href="#t" transform="translate(401.7 160.0)scale(-0.51 0.51)rotate(-16 12 12)"/><use href="#t" transform="translate(19.6 126.5)scale(0.51 0.51)rotate(12 12 12)"/><use href="#t" transform="translate(208.4 482.0)scale(-0.55 0.55)rotate(14 12 12)"/><use href="#p" transform="translate(25.7 48.2)scale(0.61 0.61)rotate(15 12 12)"/><use href="#n" transform="translate(57.4 -1.1)scale(-0.51 0.51)rotate(-18 12 12)"/><use href="#n" transform="translate(57.4 718.9)scale(-0.51 0.51)rotate(-18 12 12)"/><use href="#d" transform="translate(-4.8 673.1)scale(0.62 0.62)rotate(-3 12 12)"/><use href="#d" transform="translate(715.2 673.1)scale(0.62 0.62)rotate(-3 12 12)"/><use href="#p" transform="translate(171.7 68.8)scale(0.50 0.50)rotate(-13 12 12)"/><use href="#n" transform="translate(593.8 606.8)scale(0.56 0.56)rotate(-7 12 12)"/><use href="#t" transform="translate(451.1 237.8)scale(0.44 0.44)rotate(-9 12 12)"/><use href="#n" transform="translate(647.9 287.3)scale(0.55 0.55)rotate(-6 12 12)"/><use href="#d" transform="translate(37.0 550.8)scale(0.55 0.55)rotate(1 12 12)"/><use href="#p" transform="translate(449.1 288.0)scale(-0.46 0.46)rotate(3 12 12)"/><use href="#d" transform="translate(480.9 460.4)scale(-0.46 0.46)rotate(13 12 12)"/><use href="#p" transform="translate(356.4 -6.0)scale(0.57 0.57)rotate(-9 12 12)"/><use href="#p" transform="translate(356.4 714.0)scale(0.57 0.57)rotate(-9 12 12)"/><use href="#t" transform="translate(616.5 -7.0)scale(0.56 0.56)rotate(-5 12 12)"/><use href="#t" transform="translate(616.5 713.0)scale(0.56 0.56)rotate(-5 12 12)"/><use href="#n" transform="translate(186.9 585.1)scale(0.52 0.52)rotate(-9 12 12)"/><use href="#t" transform="translate(575.3 635.1)scale(0.55 0.55)rotate(6 12 12)"/><use href="#p" transform="translate(58.2 581.7)scale(0.54 0.54)rotate(7 12 12)"/><use href="#p" transform="translate(365.5 144.2)scale(-0.57 0.57)rotate(7 12 12)"/><use href="#p" transform="translate(484.8 612.3)scale(0.57 0.57)rotate(15 12 12)"/><use href="#p" transform="translate(350.4 129.8)scale(0.48 0.48)rotate(9 12 12)"/><use href="#t" transform="translate(620.9 337.9)scale(-0.51 0.51)rotate(16 12 12)"/><use href="#t" transform="translate(244.7 543.5)scale(0.49 0.49)rotate(0 12 12)"/><use href="#d" transform="translate(663.4 52.4)scale(0.56 0.56)rotate(-15 12 12)"/><use href="#d" transform="translate(329.9 679.5)scale(0.55 0.55)rotate(-15 12 12)"/><use href="#d" transform="translate(438.1 642.6)scale(0.58 0.58)rotate(18 12 12)"/><use href="#d" transform="translate(150.6 440.1)scale(0.43 0.43)rotate(1 12 12)"/><use href="#d" transform="translate(293.4 179.8)scale(0.53 0.53)rotate(-8 12 12)"/><use href="#p" transform="translate(503.4 389.5)scale(0.58 0.58)rotate(11 12 12)"/><use href="#p" transform="translate(609.7 616.3)scale(0.44 0.44)rotate(-3 12 12)"/><use href="#d" transform="translate(59.7 631.4)scale(0.50 0.50)rotate(10 12 12)"/><use href="#p" transform="translate(209.9 6.6)scale(0.47 0.47)rotate(3 12 12)"/><use href="#d" transform="translate(510.2 36.5)scale(-0.52 0.52)rotate(-15 12 12)"/><use href="#p" transform="translate(453.8 475.6)scale(0.46 0.46)rotate(8 12 12)"/><use href="#d" transform="translate(592.3 -7.5)scale(0.62 0.62)rotate(-16 12 12)"/><use href="#d" transform="translate(592.3 712.5)scale(0.62 0.62)rotate(-16 12 12)"/><use href="#t" transform="translate(287.6 654.4)scale(0.59 0.59)rotate(11 12 12)"/><use href="#t" transform="translate(72.8 24.4)scale(-0.46 0.46)rotate(5 12 12)"/><use href="#n" transform="translate(157.8 597.4)scale(0.51 0.51)rotate(2 12 12)"/><use href="#p" transform="translate(97.4 185.1)scale(-0.47 0.47)rotate(-2 12 12)"/><use href="#d" transform="translate(323.0 488.4)scale(0.46 0.46)rotate(-8 12 12)"/><use href="#d" transform="translate(132.0 150.8)scale(0.51 0.51)rotate(-14 12 12)"/><use href="#n" transform="translate(372.1 659.6)scale(0.57 0.57)rotate(14 12 12)"/><use href="#d" transform="translate(252.6 600.9)scale(0.45 0.45)rotate(9 12 12)"/><use href="#d" transform="translate(552.5 91.5)scale(0.58 0.58)rotate(13 12 12)"/><use href="#d" transform="translate(21.5 188.3)scale(0.60 0.60)rotate(-12 12 12)"/><use href="#n" transform="translate(88.8 244.2)scale(0.60 0.60)rotate(-8 12 12)"/><use href="#t" transform="translate(316.0 238.4)scale(0.47 0.47)rotate(10 12 12)"/><use href="#p" transform="translate(573.0 284.3)scale(0.53 0.53)rotate(-1 12 12)"/><use href="#n" transform="translate(373.3 673.7)scale(-0.46 0.46)rotate(-3 12 12)"/><use href="#n" transform="translate(165.3 455.6)scale(0.43 0.43)rotate(5 12 12)"/><use href="#p" transform="translate(286.0 128.5)scale(-0.45 0.45)rotate(7 12 12)"/><use href="#n" transform="translate(136.0 523.9)scale(0.43 0.43)rotate(16 12 12)"/><use href="#p" transform="translate(424.4 286.8)scale(-0.49 0.49)rotate(-6 12 12)"/><use href="#d" transform="translate(522.7 258.3)scale(0.51 0.51)rotate(-17 12 12)"/><use href="#t" transform="translate(690.3 184.4)scale(0.59 0.59)rotate(-16 12 12)"/><use href="#n" transform="translate(585.1 332.3)scale(0.59 0.59)rotate(13 12 12)"/><use href="#t" transform="translate(702.7 281.6)scale(0.53 0.53)rotate(5 12 12)"/><use href="#p" transform="translate(21.5 413.6)scale(0.52 0.52)rotate(14 12 12)"/><use href="#d" transform="translate(209.9 462.5)scale(0.57 0.57)rotate(13 12 12)"/><use href="#n" transform="translate(473.1 155.7)scale(0.56 0.56)rotate(8 12 12)"/><use href="#t" transform="translate(708.6 348.0)scale(-0.49 0.49)rotate(3 12 12)"/><use href="#d" transform="translate(321.7 531.1)scale(0.52 0.52)rotate(-1 12 12)"/><use href="#t" transform="translate(480.2 586.6)scale(-0.44 0.44)rotate(11 12 12)"/><use href="#d" transform="translate(105.5 580.0)scale(0.62 0.62)rotate(-11 12 12)"/><use href="#d" transform="translate(697.0 254.3)scale(0.61 0.61)rotate(4 12 12)"/><use href="#t" transform="translate(500.4 339.9)scale(0.47 0.47)rotate(6 12 12)"/><use href="#t" transform="translate(104.7 113.1)scale(0.48 0.48)rotate(1 12 12)"/><use href="#n" transform="translate(603.9 661.9)scale(0.60 0.60)rotate(-17 12 12)"/><use href="#p" transform="translate(121.6 290.8)scale(0.45 0.45)rotate(-13 12 12)"/><use href="#t" transform="translate(543.9 547.6)scale(-0.49 0.49)rotate(17 12 12)"/><use href="#d" transform="translate(409.5 137.5)scale(0.56 0.56)rotate(-1 12 12)"/><use href="#n" transform="translate(514.0 529.6)scale(0.44 0.44)rotate(17 12 12)"/><use href="#t" transform="translate(227.9 89.6)scale(0.50 0.50)rotate(8 12 12)"/><use href="#n" transform="translate(281.3 492.2)scale(0.62 0.62)rotate(-1 12 12)"/><use href="#t" transform="translate(563.1 396.3)scale(0.58 0.58)rotate(-0 12 12)"/><use href="#p" transform="translate(589.2 345.8)scale(-0.58 0.58)rotate(-13 12 12)"/><use href="#t" transform="translate(408.8 146.0)scale(-0.55 0.55)rotate(10 12 12)"/><use href="#t" transform="translate(436.5 -2.0)scale(-0.45 0.45)rotate(-2 12 12)"/><use href="#t" transform="translate(436.5 718.0)scale(-0.45 0.45)rotate(-2 12 12)"/><use href="#d" transform="translate(499.4 571.1)scale(0.44 0.44)rotate(-12 12 12)"/><use href="#d" transform="translate(29.7 502.9)scale(-0.50 0.50)rotate(-10 12 12)"/><use href="#d" transform="translate(415.8 664.1)scale(0.43 0.43)rotate(8 12 12)"/><use href="#d" transform="translate(379.0 673.0)scale(0.58 0.58)rotate(2 12 12)"/><use href="#d" transform="translate(149.1 292.3)scale(-0.56 0.56)rotate(-7 12 12)"/><use href="#n" transform="translate(93.9 97.7)scale(0.59 0.59)rotate(7 12 12)"/><use href="#t" transform="translate(77.6 536.0)scale(0.51 0.51)rotate(12 12 12)"/><use href="#p" transform="translate(552.7 470.2)scale(0.56 0.56)rotate(11 12 12)"/><use href="#t" transform="translate(122.4 403.2)scale(0.58 0.58)rotate(14 12 12)"/><use href="#t" transform="translate(589.8 204.9)scale(0.44 0.44)rotate(-6 12 12)"/><use href="#n" transform="translate(61.4 68.4)scale(0.62 0.62)rotate(-8 12 12)"/><use href="#n" transform="translate(329.8 275.2)scale(0.55 0.55)rotate(-5 12 12)"/><use href="#d" transform="translate(268.8 124.6)scale(-0.55 0.55)rotate(13 12 12)"/><use href="#p" transform="translate(346.1 86.0)scale(0.51 0.51)rotate(-1 12 12)"/><use href="#n" transform="translate(700.5 389.9)scale(0.58 0.58)rotate(8 12 12)"/><use href="#d" transform="translate(84.6 40.8)scale(-0.55 0.55)rotate(-2 12 12)"/><use href="#p" transform="translate(184.3 269.3)scale(-0.48 0.48)rotate(-4 12 12)"/><use href="#d" transform="translate(277.9 225.0)scale(-0.50 0.50)rotate(7 12 12)"/><use href="#p" transform="translate(250.1 97.2)scale(0.49 0.49)rotate(18 12 12)"/><use href="#t" transform="translate(496.3 67.7)scale(0.53 0.53)rotate(-15 12 12)"/><use href="#d" transform="translate(473.3 601.5)scale(0.60 0.60)rotate(14 12 12)"/><use href="#p" transform="translate(582.8 590.3)scale(0.47 0.47)rotate(-14 12 12)"/><use href="#t" transform="translate(506.4 493.3)scale(0.55 0.55)rotate(-6 12 12)"/><use href="#d" transform="translate(698.5 112.0)scale(0.61 0.61)rotate(-16 12 12)"/><use href="#d" transform="translate(595.2 134.1)scale(0.57 0.57)rotate(-0 12 12)"/><use href="#p" transform="translate(264.0 402.2)scale(0.56 0.56)rotate(8 12 12)"/><use href="#d" transform="translate(373.6 -0.6)scale(0.60 0.60)rotate(11 12 12)"/><use href="#d" transform="translate(373.6 719.4)scale(0.60 0.60)rotate(11 12 12)"/><use href="#d" transform="translate(682.2 362.1)scale(0.58 0.58)rotate(16 12 12)"/><use href="#n" transform="translate(586.2 447.2)scale(-0.60 0.60)rotate(-1 12 12)"/><use href="#d" transform="translate(439.3 517.8)scale(0.59 0.59)rotate(5 12 12)"/><use href="#t" transform="translate(599.0 10.4)scale(0.46 0.46)rotate(6 12 12)"/><use href="#t" transform="translate(208.0 209.4)scale(0.59 0.59)rotate(12 12 12)"/><use href="#p" transform="translate(63.8 54.6)scale(0.45 0.45)rotate(-6 12 12)"/><use href="#p" transform="translate(671.5 177.0)scale(0.48 0.48)rotate(-13 12 12)"/><use href="#t" transform="translate(435.5 251.6)scale(0.58 0.58)rotate(-17 12 12)"/><use href="#p" transform="translate(485.7 494.7)scale(0.57 0.57)rotate(-0 12 12)"/><use href="#d" transform="translate(302.5 571.5)scale(-0.42 0.42)rotate(-7 12 12)"/><use href="#p" transform="translate(36.3 163.3)scale(0.42 0.42)rotate(2 12 12)"/><use href="#d" transform="translate(286.1 514.8)scale(0.44 0.44)rotate(-2 12 12)"/><use href="#d" transform="translate(224.9 95.6)scale(-0.56 0.56)rotate(-6 12 12)"/><use href="#t" transform="translate(74.4 613.7)scale(0.60 0.60)rotate(-4 12 12)"/><use href="#n" transform="translate(627.1 136.7)scale(0.49 0.49)rotate(13 12 12)"/><use href="#d" transform="translate(588.4 169.9)scale(-0.45 0.45)rotate(-1 12 12)"/><use href="#n" transform="translate(142.4 670.5)scale(0.59 0.59)rotate(3 12 12)"/><use href="#t" transform="translate(167.8 505.8)scale(0.53 0.53)rotate(10 12 12)"/><use href="#p" transform="translate(150.5 373.1)scale(0.42 0.42)rotate(5 12 12)"/><use href="#t" transform="translate(17.0 622.9)scale(0.60 0.60)rotate(-16 12 12)"/><use href="#t" transform="translate(629.8 207.2)scale(0.59 0.59)rotate(9 12 12)"/><use href="#t" transform="translate(273.1 617.4)scale(-0.49 0.49)rotate(-15 12 12)"/><use href="#n" transform="translate(475.8 694.2)scale(0.58 0.58)rotate(16 12 12)"/><use href="#n" transform="translate(305.2 537.1)scale(0.49 0.49)rotate(-8 12 12)"/><use href="#d" transform="translate(596.1 459.4)scale(-0.55 0.55)rotate(16 12 12)"/><use href="#p" transform="translate(533.8 428.7)scale(0.62 0.62)rotate(-1 12 12)"/><use href="#p" transform="translate(600.2 250.9)scale(0.47 0.47)rotate(-15 12 12)"/><use href="#p" transform="translate(515.5 50.5)scale(-0.54 0.54)rotate(1 12 12)"/><use href="#p" transform="translate(423.4 496.7)scale(-0.48 0.48)rotate(-11 12 12)"/><use href="#d" transform="translate(487.8 441.6)scale(0.56 0.56)rotate(1 12 12)"/><use href="#p" transform="translate(522.6 167.0)scale(0.56 0.56)rotate(12 12 12)"/><use href="#d" transform="translate(348.6 70.9)scale(0.48 0.48)rotate(6 12 12)"/><use href="#n" transform="translate(32.6 564.0)scale(-0.62 0.62)rotate(-11 12 12)"/><use href="#p" transform="translate(328.7 581.5)scale(0.60 0.60)rotate(5 12 12)"/><use href="#d" transform="translate(525.3 76.8)scale(-0.58 0.58)rotate(-11 12 12)"/><use href="#n" transform="translate(87.1 431.2)scale(-0.49 0.49)rotate(-17 12 12)"/><use href="#t" transform="translate(333.2 175.4)scale(0.55 0.55)rotate(9 12 12)"/><use href="#d" transform="translate(485.0 289.6)scale(0.59 0.59)rotate(13 12 12)"/><use href="#d" transform="translate(0.0 298.8)scale(0.59 0.59)rotate(16 12 12)"/><use href="#t" transform="translate(553.3 326.6)scale(0.50 0.50)rotate(7 12 12)"/><use href="#p" transform="translate(195.9 104.1)scale(0.48 0.48)rotate(4 12 12)"/><use href="#n" transform="translate(640.9 516.1)scale(0.54 0.54)rotate(-8 12 12)"/><use href="#n" transform="translate(706.0 475.5)scale(-0.53 0.53)rotate(11 12 12)"/><use href="#n" transform="translate(302.4 441.0)scale(0.44 0.44)rotate(-17 12 12)"/><use href="#d" transform="translate(142.2 45.7)scale(0.54 0.54)rotate(12 12 12)"/><use href="#d" transform="translate(375.4 526.8)scale(0.53 0.53)rotate(13 12 12)"/><use href="#n" transform="translate(430.4 144.2)scale(0.44 0.44)rotate(-7 12 12)"/></svg>